<svg xmlns="http://www.w3.org/2000/svg" xmlns:xlink="http://www.w3.org/1999/xlink" width="500" zoomAndPan="magnify" viewBox="0 0 375 374.999991" height="500" preserveAspectRatio="xMidYMid meet" version="1.2"><defs><clipPath id="3ca2471faa"><path d="M 2 20 L 370 20 L 370 346 L 2 346 Z M 2 20 "/></clipPath><clipPath id="875bc612a5"><path d="M -82.179688 123.785156 L 249.105469 -54.796875 L 409.132812 242.066406 L 77.851562 420.648438 Z M -82.179688 123.785156 "/></clipPath><clipPath id="fd74dbbcec"><path d="M -82.179688 123.785156 L 249.105469 -54.796875 L 409.132812 242.066406 L 77.851562 420.648438 Z M -82.179688 123.785156 "/></clipPath><clipPath id="2081571ef4"><path d="M 24 44 L 339 44 L 339 323 L 24 323 Z M 24 44 "/></clipPath><clipPath id="5cae731d41"><path d="M -47.808594 132.117188 L 236.148438 -20.957031 L 372.984375 232.882812 L 89.027344 385.957031 Z M -47.808594 132.117188 "/></clipPath><clipPath id="cf6235e201"><path d="M -47.808594 132.117188 L 236.148438 -20.957031 L 372.984375 232.882812 L 89.027344 385.957031 Z M -47.808594 132.117188 "/></clipPath></defs><g id="d45203a90f"><g clip-rule="nonzero" clip-path="url(#3ca2471faa)"><g clip-rule="nonzero" clip-path="url(#875bc612a5)"><g clip-rule="nonzero" clip-path="url(#fd74dbbcec)"><path style=" stroke:none;fill-rule:evenodd;fill:#310909;fill-opacity:1;" d="M 249.535156 107.496094 L 252.324219 112.667969 C 245.46875 116.167969 248.535156 115.320312 242.773438 115.589844 C 243.492188 108.105469 242.34375 109.605469 249.535156 107.496094 Z M 201.265625 133.515625 C 209.511719 129.304688 207.089844 128.113281 212.671875 134.042969 C 201.253906 139.871094 207.683594 137.839844 201.265625 133.515625 Z M 211.070312 110.429688 C 215.914062 103.769531 217.195312 102.847656 222.476562 110.957031 C 211.824219 115.605469 214.628906 112.027344 211.070312 110.429688 Z M 128.976562 148.011719 C 137.226562 143.796875 134.800781 142.605469 140.382812 148.535156 C 128.96875 154.363281 135.394531 152.332031 128.976562 148.011719 Z M 222.460938 82.039062 C 230.710938 77.828125 228.289062 76.636719 233.871094 82.566406 L 225.25 87.210938 Z M 156.949219 117.355469 C 161.796875 110.695312 163.074219 109.773438 168.359375 117.882812 C 161.183594 121.011719 162.359375 120.214844 156.949219 117.355469 Z M 180.816406 95.589844 C 185.160156 89.792969 185.316406 91.230469 191.296875 94.390625 C 184.371094 103.90625 185.832031 98.96875 180.816406 95.589844 Z M 65.175781 153.480469 C 69.851562 147.054688 70.035156 146.316406 75.652344 152.28125 C 71.308594 158.078125 71.152344 156.640625 65.175781 153.480469 Z M 110.523438 117.910156 C 114.761719 112.253906 115.492188 112.125 120.207031 119.363281 C 109.671875 123.957031 116.667969 122.046875 110.523438 117.910156 Z M 199.242188 67.855469 C 203.917969 61.429688 204.101562 60.695312 209.722656 66.660156 C 207.757812 69.277344 209.355469 69.203125 205.5 69.984375 C 196.789062 71.757812 202.503906 69.320312 199.242188 67.855469 Z M 146.847656 73.851562 C 155.097656 69.636719 152.671875 68.449219 158.257812 74.378906 L 149.636719 79.023438 Z M 64.097656 118.460938 L 70.992188 114.742188 L 73.78125 119.914062 L 66.886719 123.632812 Z M 93.929688 91.253906 C 98.273438 85.457031 98.429688 86.894531 104.410156 90.054688 C 97.484375 99.570312 98.945312 94.632812 93.929688 91.253906 Z M 11.609375 206.832031 C 15.226562 213.542969 44.925781 213.734375 52.683594 214.492188 C 109.066406 219.984375 205.960938 208.859375 257.925781 180.847656 C 289.15625 164.011719 323.226562 142.054688 323.859375 106.625 C 324.195312 87.671875 317.167969 83.128906 303.941406 70.640625 C 265.589844 34.429688 207.066406 13.882812 154.824219 23.082031 C 80.296875 36.203125 24.226562 86.601562 10.214844 160.152344 C 8.253906 170.453125 5.570312 195.628906 11.609375 206.832031 Z M 60.164062 218.480469 C 44.839844 226.742188 46.269531 236.828125 36.871094 244.953125 C 26.769531 253.683594 26.570312 232.292969 13.210938 230.441406 C 7.039062 243.410156 19.316406 256.296875 42.453125 258.304688 C 82.3125 261.761719 95.773438 264.261719 139.769531 261.609375 C 196.402344 258.195312 313.136719 238.484375 343.539062 173.234375 C 347.800781 164.089844 346.597656 164.949219 346.523438 155.335938 C 287.976562 149.71875 320.605469 163.847656 302.867188 179.984375 C 294.558594 187.542969 283.421875 181.074219 275.4375 180.308594 C 271.34375 188.042969 272.917969 210.589844 265.105469 214.800781 C 254.34375 220.601562 239.96875 198.21875 228.617188 196.644531 C 218.671875 206.011719 224.003906 219.820312 212.980469 229.550781 C 192.902344 227.625 196.148438 211.34375 172.117188 211.527344 C 163.652344 224.179688 164.199219 257.46875 138.570312 236.652344 C 132.347656 231.597656 128.824219 225.816406 121.582031 220.972656 C 112.082031 229.359375 113.222656 239.621094 100.503906 247.910156 C 82.792969 238.546875 73.472656 211.304688 60.164062 218.480469 Z M 7.917969 257.769531 C -5.878906 265.207031 10.554688 295.070312 33.671875 297.285156 C 38.722656 315.863281 46.261719 329.71875 64.582031 338.886719 C 65.675781 339.433594 70.882812 341.46875 72.355469 341.902344 C 93.472656 348.117188 125.167969 345.449219 147.238281 342.867188 C 181.667969 338.84375 233.914062 328.898438 272.429688 313.71875 C 309.21875 295.578125 333.75 280.582031 361.207031 254.96875 C 361.980469 248.960938 363.65625 244.273438 363.882812 237.15625 C 363.988281 233.855469 363.976562 230.804688 363.40625 226.890625 C 360.109375 204.285156 365.871094 222.203125 368.484375 195.164062 C 369.34375 186.289062 369.855469 182.773438 367.226562 173.101562 C 355.417969 183.527344 353.050781 200.765625 323.871094 216.496094 C 249.019531 256.847656 208.3125 257.050781 138.609375 318.59375 C 134.46875 311.304688 131.847656 309.933594 126.667969 300.535156 C 121.96875 292.003906 118.746094 288.039062 112.996094 283.433594 C 87.039062 262.640625 11.0625 256.074219 7.917969 257.769531 Z M 7.917969 257.769531 "/></g></g></g><g clip-rule="nonzero" clip-path="url(#2081571ef4)"><g clip-rule="nonzero" clip-path="url(#5cae731d41)"><g clip-rule="nonzero" clip-path="url(#cf6235e201)"><path style=" stroke:none;fill-rule:evenodd;fill:#ff5c00;fill-opacity:1;" d="M 236.078125 118.179688 L 238.464844 122.605469 C 232.597656 125.601562 235.222656 124.875 230.292969 125.105469 C 230.90625 118.703125 229.925781 119.988281 236.078125 118.179688 Z M 194.765625 140.449219 C 201.828125 136.84375 199.75 135.824219 204.527344 140.898438 C 194.757812 145.890625 200.257812 144.148438 194.765625 140.449219 Z M 203.15625 120.691406 C 207.304688 114.992188 208.398438 114.203125 212.921875 121.140625 C 203.804688 125.121094 206.207031 122.058594 203.15625 120.691406 Z M 132.898438 152.855469 C 139.957031 149.25 137.882812 148.230469 142.660156 153.304688 C 132.890625 158.292969 138.390625 156.550781 132.898438 152.855469 Z M 212.910156 96.394531 C 219.96875 92.789062 217.894531 91.769531 222.671875 96.84375 L 215.296875 100.820312 Z M 156.839844 126.617188 C 160.988281 120.917969 162.082031 120.128906 166.605469 127.066406 C 160.464844 129.746094 161.46875 129.066406 156.839844 126.617188 Z M 177.265625 107.988281 C 180.984375 103.027344 181.117188 104.257812 186.234375 106.964844 C 180.308594 115.109375 181.558594 110.882812 177.265625 107.988281 Z M 78.292969 157.535156 C 82.296875 152.035156 82.453125 151.402344 87.261719 156.507812 C 83.542969 161.46875 83.410156 160.242188 78.292969 157.535156 Z M 117.105469 127.089844 C 120.734375 122.25 121.355469 122.140625 125.394531 128.335938 C 116.378906 132.269531 122.367188 130.632812 117.105469 127.089844 Z M 193.035156 84.253906 C 197.039062 78.753906 197.195312 78.125 202.003906 83.230469 C 200.324219 85.46875 201.691406 85.40625 198.390625 86.078125 C 190.9375 87.59375 195.824219 85.503906 193.035156 84.253906 Z M 148.195312 89.386719 C 155.253906 85.78125 153.179688 84.761719 157.957031 89.835938 L 150.582031 93.8125 Z M 77.371094 127.5625 L 83.273438 124.382812 L 85.660156 128.808594 L 79.757812 131.992188 Z M 102.902344 104.277344 C 106.621094 99.316406 106.753906 100.546875 111.871094 103.253906 C 105.945312 111.398438 107.195312 107.167969 102.902344 104.277344 Z M 32.449219 203.195312 C 35.546875 208.941406 60.964844 209.105469 67.605469 209.75 C 115.859375 214.453125 198.785156 204.933594 243.261719 180.957031 C 269.988281 166.546875 299.148438 147.757812 299.6875 117.433594 C 299.976562 101.214844 293.960938 97.324219 282.644531 86.636719 C 249.820312 55.648438 199.734375 38.0625 155.019531 45.933594 C 91.234375 57.164062 43.25 100.296875 31.257812 163.246094 C 29.578125 172.0625 27.285156 193.609375 32.449219 203.195312 Z M 74.007812 213.164062 C 60.890625 220.234375 62.113281 228.871094 54.070312 235.820312 C 45.425781 243.292969 45.253906 224.988281 33.824219 223.402344 C 28.539062 234.503906 39.046875 245.53125 58.847656 247.25 C 92.960938 250.207031 104.480469 252.347656 142.136719 250.078125 C 190.605469 247.15625 290.511719 230.285156 316.53125 174.441406 C 320.175781 166.617188 319.148438 167.351562 319.085938 159.125 C 268.980469 154.316406 296.90625 166.410156 281.722656 180.21875 C 274.613281 186.6875 265.082031 181.152344 258.246094 180.496094 C 254.746094 187.117188 256.089844 206.414062 249.40625 210.015625 C 240.195312 214.980469 227.890625 195.824219 218.175781 194.476562 C 209.664062 202.496094 214.226562 214.3125 204.792969 222.640625 C 187.609375 220.992188 190.386719 207.058594 169.820312 207.214844 C 162.574219 218.042969 163.046875 246.535156 141.109375 228.71875 C 135.785156 224.394531 132.765625 219.441406 126.570312 215.296875 C 118.4375 222.476562 119.417969 231.257812 108.53125 238.351562 C 93.375 230.339844 85.398438 207.023438 74.007812 213.164062 Z M 29.292969 246.789062 C 17.484375 253.15625 31.546875 278.714844 51.332031 280.609375 C 55.65625 296.507812 62.105469 308.367188 77.789062 316.214844 C 78.722656 316.683594 83.179688 318.421875 84.4375 318.792969 C 102.515625 324.117188 129.636719 321.832031 148.527344 319.625 C 177.996094 316.175781 222.710938 307.664062 255.671875 294.675781 C 287.15625 279.148438 308.15625 266.316406 331.652344 244.394531 C 332.3125 239.253906 333.746094 235.238281 333.941406 229.148438 C 334.03125 226.324219 334.023438 223.714844 333.535156 220.363281 C 330.714844 201.015625 335.644531 216.351562 337.882812 193.207031 C 338.613281 185.613281 339.054688 182.605469 336.804688 174.328125 C 326.695312 183.25 324.671875 198.007812 299.699219 211.46875 C 235.636719 246 200.796875 246.175781 141.140625 298.847656 C 137.597656 292.609375 135.355469 291.4375 130.921875 283.390625 C 126.898438 276.089844 124.144531 272.699219 119.222656 268.753906 C 97.003906 250.960938 31.980469 245.339844 29.292969 246.789062 Z M 29.292969 246.789062 "/></g></g></g></g></svg>